<svg width="858" height="354" viewBox="0 0 858 354" fill="none" xmlns="http://www.w3.org/2000/svg">
<path fill-rule="evenodd" clip-rule="evenodd" d="M183.236 96.265L159.986 119.531L162.727 122.272L165.469 125.013L184.235 106.266L203.001 87.52V118.502V149.483L181.473 171.028L159.945 192.572L163 195.499L166.055 198.426L184.528 179.973L203.001 161.52V192.519V223.517L181.524 244.978L160.046 266.438L162.737 269.246L165.428 272.055L186.04 251.461L206.652 230.866L222.346 250.386C230.977 261.121 238.527 270.207 239.124 270.576C239.721 270.945 241.363 270.093 242.773 268.682L245.337 266.118L228.169 244.83L211.001 223.543L211.028 192.521L211.055 161.5L214.727 165.5C216.746 167.7 224.447 175.899 231.839 183.719L245.28 197.938L248.14 195.901C249.714 194.78 251.001 193.514 251.001 193.086C251.001 192.658 242.001 182.764 231.001 171.099L211.001 149.891L211.016 119.196L211.031 88.5L218.787 96.5C223.053 100.9 230.858 109.09 236.132 114.701L245.721 124.902L248.539 121.96L251.357 119.019L244.416 111.759C240.598 107.767 230.779 97.412 222.595 88.75C214.411 80.088 207.438 73 207.1 73C206.762 73 196.023 83.469 183.236 96.265ZM97.2363 147.265L73.9863 170.531L76.7273 173.272L79.4693 176.013L98.2353 157.266L117.001 138.52V169.502V200.483L95.4733 222.028L73.9453 243.572L77.0003 246.499L80.0553 249.426L98.5283 230.973L117.001 212.52V244.26V276H120.987H124.973L125.237 244.534L125.501 213.069L142.359 231.025L159.217 248.982L162.109 246.923C163.7 245.79 165.001 244.514 165.001 244.086C165.001 243.658 156.001 233.764 145.001 222.099L125.001 200.891L125.016 170.196L125.031 139.5L132.787 147.5C137.053 151.9 144.858 160.09 150.132 165.701L159.721 175.902L162.539 172.96L165.357 170.019L158.416 162.759C154.598 158.767 144.779 148.412 136.595 139.75C128.411 131.088 121.438 124 121.1 124C120.762 124 110.023 134.469 97.2363 147.265ZM269.236 147.265L245.986 170.531L248.727 173.272L251.469 176.013L270.235 157.266L289.001 138.52V169.502V200.483L267.473 222.028L245.945 243.572L249 246.499L252.055 249.426L270.528 230.973L289.001 212.52V244.26V276H292.987H296.973L297.237 244.534L297.501 213.069L314.359 231.025L331.217 248.982L334.109 246.923C335.7 245.79 337.001 244.514 337.001 244.086C337.001 243.658 328.001 233.764 317.001 222.099L297.001 200.891L297.016 170.196L297.031 139.5L304.787 147.5C309.053 151.9 316.858 160.09 322.132 165.701L331.721 175.902L334.539 172.96L337.357 170.019L330.416 162.759C326.598 158.767 316.779 148.412 308.595 139.75C300.411 131.088 293.438 124 293.1 124C292.762 124 282.023 134.469 269.236 147.265ZM494.001 143.968V147.937L482.251 148.218L470.501 148.5V152V155.5L499.251 155.765L528.001 156.031V152.015V148H516.001H504.001V144V140H499.001H494.001V143.968ZM730.637 142.316C729.566 146.58 723.961 153.069 718.046 156.893C712.527 160.459 705.399 162.991 696.751 164.456L693.001 165.091V169.045V173L695.251 172.983C704.029 172.915 719.518 167.524 726.76 162.016L732.019 158.017L749.76 165.12C759.518 169.026 768.01 172.425 768.632 172.673C769.599 173.057 772.001 168.253 772.001 165.933C772.001 165.51 764.351 162.165 755.001 158.5C745.651 154.835 738.001 151.438 738.001 150.952C738.001 150.466 738.761 148.473 739.691 146.524C741.688 142.337 741.065 141.491 735.358 140.633L731.215 140.011L730.637 142.316ZM443.001 184.5V227H448.001H453.001V184.5V142H448.001H443.001V184.5ZM540.001 171.555V201.11L544.751 200.805L549.501 200.5L549.766 171.25L550.031 142H545.016H540.001V171.555ZM636.001 184.5V227H641.001H646.001V184.5V142H641.001H636.001V184.5ZM585.749 145.427C580.257 147.387 575.408 151.449 572.366 156.64L569.687 161.211L569.212 168.615L569.212 168.615L568.737 176.02L570.51 180.663C574.515 191.151 583.52 197.278 594.976 197.312C606.026 197.344 614.096 192.592 618.59 183.408L621.334 177.798L621.312 170.649C621.299 166.539 620.644 161.981 619.77 159.927C617.443 154.453 612.049 148.931 606.508 146.351L601.501 144.02L595.501 144.054C592.201 144.072 587.813 144.69 585.749 145.427ZM377.668 145.667C377.301 146.033 377.001 148.058 377.001 150.167V154H396.146H415.292L414.695 166.25C414.041 179.667 412.697 185.755 408.617 193.784C403.376 204.102 395.403 209.955 383.64 212.123L377.001 213.346V217.817V222.289L383.352 221.696C395.305 220.58 406.609 214.255 413.583 204.782C421.705 193.748 424.91 180.788 424.966 158.75L425.001 145H401.668C388.834 145 378.034 145.3 377.668 145.667ZM586.589 155.266C581.568 158.134 578.797 163.429 578.848 170.059C578.925 180.025 582.838 185.802 591 188L594.908 189.052L599.455 187.907C613.89 184.272 616.3 161.91 603.017 154.852C598.253 152.32 591.448 152.492 586.589 155.266ZM492.501 159.991C481.35 161.313 474.601 166.021 474.601 172.478C474.601 178.117 480.726 182.965 489.751 184.468L494.001 185.176V188.088V191H482.001H470.001V195V199L490.751 198.992C511.786 198.983 527.669 197.783 531.11 195.942C532.417 195.242 533.001 193.838 533.001 191.397V187.865L531.098 188.469C527 189.77 517.178 190.989 510.751 190.994L504.001 191V188V185H505.819C509.935 185 518.516 181.639 521.166 178.989L524.001 176.154V172.799C524.001 164.994 517.609 161.24 501.501 159.588C499.851 159.418 495.801 159.6 492.501 159.991ZM493.43 167.082C486.748 167.946 484.001 169.502 484.001 172.421V174.772L487.402 176.386C489.689 177.471 493.538 177.999 499.152 177.998L507.501 177.997L511.001 176.248C520.75 171.378 508.724 165.105 493.43 167.082ZM690.001 183V187H709.001H728.001V191.5V196H712.001H696.001V200V204H703.501H711.001V211.5V219H703.001H695.001V223V227H732.501H770.001V223V219H762.501H755.001V211.5V204H762.001H769.001V200V196H753.501H738.001V191.5V187H756.501H775.001V183V179H732.501H690.001V183ZM720.001 211.5V219H732.501H745.001V211.5V204H732.501H720.001V211.5ZM477.001 208.988V213H508.501H540.001V220V227H545.035H550.069L549.785 216.25L549.501 205.5L513.251 205.238L477.001 204.975V208.988ZM623.501 210.887C620.065 211.841 610.291 212.419 592.251 212.735L566.001 213.194V217.597V222L589.751 221.983L613.501 221.965L620.438 220.496C624.253 219.688 627.77 218.631 628.252 218.149C628.735 217.666 628.988 215.523 628.815 213.385L628.501 209.499L623.501 210.887Z" fill="#2E5C38"/>
</svg>
