<svg width="284" height="284" viewBox="0 0 284 284" fill="none" xmlns="http://www.w3.org/2000/svg">
<path d="M96.041 87.531L119.291 64.265C132.078 51.469 142.817 41 143.155 41C143.493 41 150.466 48.088 158.65 56.75C166.834 65.412 176.653 75.767 180.471 79.759L187.412 87.019L184.594 89.96L181.776 92.902L172.187 82.701C166.913 77.09 159.108 68.9 154.842 64.5L147.086 56.5L147.071 87.196L147.056 117.891L167.056 139.099C178.056 150.764 187.056 160.658 187.056 161.086C187.056 161.514 185.769 162.78 184.195 163.901L181.335 165.938L167.894 151.719C160.502 143.899 152.801 135.7 150.782 133.5L147.11 129.5L147.083 160.521L147.056 191.543L164.224 212.83L181.392 234.118L178.828 236.682C177.418 238.093 175.776 238.945 175.179 238.576C174.582 238.207 167.032 229.121 158.401 218.386L142.707 198.866L122.095 219.461L101.483 240.055L98.792 237.246L96.101 234.438L117.579 212.978L139.056 191.517V160.519V129.52L120.583 147.973L102.11 166.426L99.055 163.499L96 160.572L117.528 139.028L139.056 117.483V86.502V55.52L120.29 74.266L101.524 93.013L98.782 90.272L96.041 87.531Z" fill="black"/>
<path d="M10.041 138.531L33.291 115.265C46.078 102.469 56.817 92 57.155 92C57.493 92 64.466 99.088 72.65 107.75C80.834 116.412 90.653 126.767 94.471 130.759L101.412 138.019L98.594 140.96L95.776 143.902L86.187 133.701C80.913 128.09 73.108 119.9 68.842 115.5L61.086 107.5L61.071 138.196L61.056 168.891L81.056 190.099C92.056 201.764 101.056 211.658 101.056 212.086C101.056 212.514 99.755 213.79 98.164 214.923L95.272 216.982L78.414 199.025L61.556 181.069L61.292 212.534L61.028 244H57.042H53.056V212.26V180.52L34.583 198.973L16.11 217.426L13.055 214.499L10 211.572L31.528 190.028L53.056 168.483V137.502V106.52L34.29 125.266L15.524 144.013L12.782 141.272L10.041 138.531Z" fill="black"/>
<path d="M182.041 138.531L205.291 115.265C218.078 102.469 228.817 92 229.155 92C229.493 92 236.466 99.088 244.65 107.75C252.834 116.412 262.653 126.767 266.471 130.759L273.412 138.019L270.594 140.96L267.776 143.902L258.187 133.701C252.913 128.09 245.108 119.9 240.842 115.5L233.086 107.5L233.071 138.196L233.056 168.891L253.056 190.099C264.056 201.764 273.056 211.658 273.056 212.086C273.056 212.514 271.755 213.79 270.164 214.923L267.272 216.982L250.414 199.025L233.556 181.069L233.292 212.534L233.028 244H229.042H225.056V212.26V180.52L206.583 198.973L188.11 217.426L185.055 214.499L182 211.572L203.528 190.028L225.056 168.483V137.502V106.52L206.29 125.266L187.524 144.013L184.782 141.272L182.041 138.531Z" fill="black"/>
</svg>
